<svg xmlns="http://www.w3.org/2000/svg" width="64" height="64" viewBox="0 0 64 64">
  <!-- Carpeta base -->
  <path d="M8 20h20l4 6h24v24a6 6 0 0 1-6 6H14a6 6 0 0 1-6-6V20z" fill="#e6f2ff" stroke="#0077b6" stroke-width="2"/>
  
  <!-- Tapa de carpeta -->
  <path d="M8 20v-6a6 6 0 0 1 6-6h12l4 6h24a6 6 0 0 1 6 6v0H8z" fill="#0077b6"/>
  
  <!-- Símbolo de recursos (engranaje) -->
  <circle cx="32" cy="38" r="8" fill="#ffffff" stroke="#0077b6" stroke-width="2"/>
  <path d="M32 30v4M32 42v4M24 38h4M36 38h4" stroke="#0077b6" stroke-width="2"/>
  <circle cx="32" cy="38" r="2" fill="#0077b6"/>
</svg>

